# xmcd CD database file
#
# Track frame offsets:
#	150
#	19148
#	45452
#	65871
#	87080
#	105682
#	125419
#	145190
#	149861
#	183240
#	202254
#	222594
#	244667
#	267685
#	286331
#	308859
#
# Disc length: 4452 seconds
#
# Revision: 1
# Processed by: cddbd v1.5.1PL0 Copyright (c) Steve Scherf et al.
# Submitted via: CDex 1.51
#
DISCID=07116210
DTITLE=Various Artist - Salsa Hits 2003
DYEAR=2003
DGENRE=Salsa
TTITLE0=Celia Cruz
TTITLE1=Oscar D'León
TTITLE2=Tito Nieves
TTITLE3=Gilberto Santa Rosa
TTITLE4=Yuri Beunaventura
TTITLE5=José Alberto
TTITLE6=El Gran Combo
TTITLE7=Richie Ray and Bobby Cruz
TTITLE8=Richie Ray and Bobby Cruz
TTITLE9=Sonora Carruseles
TTITLE10=Grupo Galé
TTITLE11=Fruko
TTITLE12=Africando
TTITLE13=Puerto Rican Power
TTITLE14=Marc Anthony and Jeniffer López
TTITLE15=Quinto Mayor
EXTD=YEAR: 2003
EXTT0=
EXTT1=
EXTT2=
EXTT3=
EXTT4=
EXTT5=
EXTT6=
EXTT7=
EXTT8=
EXTT9=
EXTT10=
EXTT11=
EXTT12=
EXTT13=
EXTT14=
EXTT15=
PLAYORDER=
